<svg width="104" height="104" viewBox="0 0 104 104" fill="none" xmlns="http://www.w3.org/2000/svg">
<rect width="104" height="104" rx="24" fill="#E880C8"/>
<g clip-path="url(#clip0_228_250)">
<path d="M61.508 47.4964C67.5417 47.4964 70.5586 44.5632 70.5586 38.6966H16V20H88.8684V38.6966C88.8684 56.7485 79.7483 65.7745 61.508 65.7745C61.508 57.1121 61.508 57.1121 61.508 47.4964Z" fill="white"/>
<path d="M51.9766 47.4963H33.6264V56.4774C33.6264 62.6864 30.7378 65.7462 24.9604 65.6569C19.0226 65.6569 22.5878 65.6569 16 65.6569V84H24.9604C42.9712 84 51.9766 74.8258 51.9766 56.4774C51.9766 50.5469 51.9766 47.5532 51.9766 47.4963Z" fill="white"/>
</g>
<defs>
<clipPath id="clip0_228_250">
<rect width="73" height="64" fill="white" transform="translate(16 20)"/>
</clipPath>
</defs>
</svg>
